<svg width="34" height="38" viewBox="0 0 34 38" fill="none" xmlns="http://www.w3.org/2000/svg">
<path d="M29.3793 6.30097L29.3964 6.28381L29.3932 6.28054C29.6068 6.04768 29.6048 5.68777 29.3797 5.46226L28.541 4.62356C28.3155 4.39846 27.9556 4.39642 27.7227 4.61008L27.719 4.6064L24.1068 8.219C23.8752 8.45022 23.8752 8.82607 24.1068 9.0577L24.9455 9.89681C25.1772 10.1284 25.553 10.1284 25.7846 9.89681L29.3793 6.30097Z" fill="black"/>
<path d="M16.4069 6.44763L17.5929 6.44804C17.9123 6.44804 18.1709 6.19475 18.1836 5.87855H18.186V0.770747C18.186 0.443109 17.9205 0.177567 17.5929 0.177567V0.17675H16.4069C16.0793 0.17675 15.8137 0.442701 15.8137 0.770339V5.87855H15.8162C15.8292 6.19475 16.0874 6.44763 16.4069 6.44763Z" fill="black"/>
<path d="M34.0002 14.9135C34.0002 14.5936 33.7473 14.3354 33.4311 14.3228V14.3203H28.3229C27.9953 14.3203 27.7297 14.5855 27.7297 14.9135V16.0995C27.7297 16.4275 27.9953 16.693 28.3229 16.693H33.4311V16.6906C33.7473 16.6775 34.0002 16.4189 34.0002 16.0995V14.9135Z" fill="black"/>
<path d="M11.6091 23.1996H11.8689L10.7392 21.6183C9.83784 20.3566 9.30444 18.8204 9.30444 17.1559C9.30444 12.9056 12.7496 9.46043 16.9999 9.46043C21.2502 9.46043 24.6954 12.9055 24.6954 17.1563C24.6954 18.6866 24.24 20.1067 23.4642 21.3088C22.0362 23.3755 21.1217 26.098 20.938 29.0877L20.3099 29.0179V29.1421H13.6606V28.9972L13.0572 29.0754C12.9239 26.9299 12.4141 24.9239 11.6091 23.1996ZM21.4726 29.148C21.4738 29.1482 21.4742 29.1483 21.473 29.1481L21.4726 29.148Z" stroke="#150050" stroke-width="2"/>
<path d="M21.3762 35.2544C21.3534 35.2544 21.3321 35.2585 21.3101 35.2614V35.2544H12.6607V35.2614C12.6387 35.2589 12.617 35.2544 12.5942 35.2544C12.2669 35.2544 12.001 35.5196 12.001 35.8476V37.2301C12.001 37.5577 12.2665 37.8233 12.5942 37.8233C12.617 37.8233 12.6387 37.8192 12.6607 37.8163V37.8233H21.3101V37.8167C21.3321 37.8192 21.3538 37.8233 21.3762 37.8233C21.7039 37.8233 21.9694 37.5577 21.9694 37.2301V35.8476C21.9694 35.5196 21.7039 35.2544 21.3762 35.2544Z" fill="black"/>
<path d="M21.3762 31.3979C21.3534 31.3979 21.3321 31.402 21.3101 31.4049V31.3979H12.6607V31.4049C12.6387 31.4024 12.617 31.3979 12.5942 31.3979C12.2739 31.3979 12.014 31.6529 12.003 31.9711C12.0022 31.9789 12.0018 31.9866 12.001 31.9944V33.3736C12.001 33.7012 12.2665 33.9668 12.5942 33.9668C12.617 33.9668 12.6387 33.9627 12.6607 33.9598V33.9668H21.3101V33.9602C21.3321 33.9627 21.3538 33.9672 21.3762 33.9672C21.7039 33.9672 21.9694 33.7016 21.9694 33.374V31.9911C21.9694 31.6631 21.7039 31.3979 21.3762 31.3979Z" fill="black"/>
<path d="M5.7018 14.7861V14.7836H0.59318C0.265542 14.7836 0 15.0492 0 15.3764V16.5627C0 16.89 0.265542 17.1555 0.59318 17.1555H5.7018V17.1535C6.01759 17.1404 6.27088 16.8818 6.27088 16.5632V15.3764C6.27047 15.0577 6.01759 14.7991 5.7018 14.7861Z" fill="black"/>
<path d="M4.82534 6.0967L8.43752 9.7093L8.4412 9.70563C8.67365 9.91928 9.03356 9.91765 9.25907 9.69214L10.0982 8.85303C10.3237 8.62752 10.3253 8.2672 10.1117 8.03475L10.1153 8.03108L6.50275 4.41889C6.27152 4.18766 5.89568 4.18766 5.66404 4.41889L4.82534 5.25759C4.5937 5.48963 4.5937 5.86507 4.82534 6.0967Z" fill="black"/>
</svg>
