<svg width="42" height="42" viewBox="0 0 42 42" fill="none" xmlns="http://www.w3.org/2000/svg">
<path d="M40.6417 4.88189C37.5641 12.5558 29.8502 22.9876 23.3953 28.1635L19.4584 31.321C18.9588 31.6807 18.4592 32.0005 17.8996 32.2203C17.8996 31.8606 17.8796 31.4609 17.8197 31.0812C17.5999 29.4025 16.8405 27.8438 15.5015 26.5048C14.1426 25.1459 12.4839 24.3465 10.7852 24.1267C10.3856 24.1067 9.98587 24.0667 9.58618 24.1067C9.80601 23.4872 10.1457 22.9077 10.5654 22.428L13.6829 18.4911C18.8389 12.0362 29.3106 4.28236 36.9646 1.22478C38.1436 0.785124 39.2827 1.10487 40.0022 1.84429C40.7616 2.5837 41.1213 3.72281 40.6417 4.88189Z" stroke="black" stroke-width="2" stroke-linecap="round" stroke-linejoin="round"/>
<path d="M25.5139 25.9253C25.5139 20.7094 21.2773 16.4728 16.0614 16.4728M17.9 32.2203C17.9 34.4186 17.0606 36.5169 15.4819 38.1157C14.2628 39.3347 12.6041 40.174 10.6257 40.4338L5.70958 40.9734C3.0317 41.2732 0.733511 38.995 1.05326 36.2771L1.59283 31.361C2.07245 26.9845 5.72957 24.1867 9.6065 24.1067C10.0062 24.0867 10.4259 24.1067 10.8056 24.1267C12.5042 24.3465 14.1629 25.1259 15.5218 26.5048C16.8608 27.8438 17.6202 29.4025 17.84 31.0812C17.86 31.4609 17.9 31.8406 17.9 32.2203Z" stroke="black" stroke-width="2" stroke-linecap="round" stroke-linejoin="round"/>
<path d="M23.9752 38.7152C26.9128 41.6529 29.8905 41.6529 32.8282 38.7152L38.7435 32.7999C41.7211 29.8222 41.7211 26.8846 38.7435 23.9069L37.2647 22.4481L31.3493 28.3434M3.2715 18.0116C0.333817 15.0339 0.333817 12.0962 3.2715 9.11859L9.18683 3.20326C12.1245 0.26558 15.1022 0.26558 18.0398 3.20326L19.5187 4.68209M19.5387 4.70208L12.1445 12.0962" stroke="black" stroke-width="2" stroke-linecap="round"/>
</svg>
