<svg width="40" height="40" viewBox="0 0 40 40" fill="none" xmlns="http://www.w3.org/2000/svg">
<path d="M36.6667 20C36.6667 10.8 29.2 3.33334 20 3.33334C10.8 3.33334 3.33337 10.8 3.33337 20C3.33337 29.2 10.8 36.6667 20 36.6667" stroke="black" stroke-width="2" stroke-linecap="round" stroke-linejoin="round"/>
<path d="M13.3333 5H15C11.75 14.7359 11.75 25.2641 15 35H13.3333M25 5C26.6166 9.86667 27.4333 14.9333 27.4333 20" stroke="black" stroke-width="2" stroke-linecap="round" stroke-linejoin="round"/>
<path d="M5 26.6667V25C9.86667 26.6167 14.9333 27.4333 20 27.4333M5 15C14.7359 11.7501 25.2641 11.7501 35 15M36.6667 36.6667L35 35M30.3333 35.6667C31.7478 35.6667 33.1044 35.1048 34.1046 34.1046C35.1048 33.1044 35.6667 31.7478 35.6667 30.3333C35.6667 28.9188 35.1048 27.5623 34.1046 26.5621C33.1044 25.5619 31.7478 25 30.3333 25C28.9188 25 27.5623 25.5619 26.5621 26.5621C25.5619 27.5623 25 28.9188 25 30.3333C25 31.7478 25.5619 33.1044 26.5621 34.1046C27.5623 35.1048 28.9188 35.6667 30.3333 35.6667Z" stroke="black" stroke-width="2" stroke-linecap="round" stroke-linejoin="round"/>
</svg>
