<svg width="37" height="50" viewBox="0 0 37 50" fill="none" xmlns="http://www.w3.org/2000/svg">
<g clip-path="url(#clip0_124_110)">
<path d="M36.8976 38.251C37.2555 36.1206 37.2555 33.9454 36.8976 31.815L0.821809 10.6348C0.0646361 16.7404 -0.128099 22.5775 0.821809 27.8915C10.3209 32.3863 18.9458 37.1083 25.602 42.3466C24.2135 43.6542 22.4875 44.5482 20.6184 44.9279C14.5748 42.0162 7.95988 37.363 1.09026 31.9802C0.728833 34.1681 0.728833 36.4004 1.09026 38.5883C7.13193 43.2241 13.6479 47.2065 20.5289 50.469C25.2234 48.404 30.0074 45.2927 34.8326 41.6514C24.4043 34.9883 14.5817 29.2062 6.07383 25.379C5.26848 25.4961 4.40117 20.3955 5.21341 18.6127C5.72278 17.9932 25.3473 30.5898 36.8976 38.251Z" fill="#F5F5F5"/>
<path d="M0.820618 6.65576V0L18.6875 11.0816L36.5544 0.58647L36.8203 28.0687L31.167 24.8227L31.1125 10.5019L18.8171 17.7987L0.820618 6.65576Z" fill="#5FBAFF"/>
</g>
<defs>
<clipPath id="clip0_124_110">
<rect width="36.6408" height="50" fill="white" transform="translate(0.179626)"/>
</clipPath>
</defs>
</svg>
